arm26_elbow_motion
version=1
nRows=300
nColumns=2
inDegrees=no
endheader
time	r_elbow_flex
0.110893	0.39533694
0.139563	0.39457809
0.157321	0.39357509
0.168247	0.39247499
0.179461	0.39145010
0.191670	0.39034452
0.200475	0.38909134
0.218057	0.38796290
0.232414	0.38777776
0.241590	0.38780115
0.253468	0.38791131
0.275631	0.38786473
0.295259	0.38777324
0.299983	0.38760075
0.314906	0.38733617
0.332250	0.38704565
0.372510	0.38672647
0.375046	0.38633860
0.401688	0.38596873
0.410527	0.38559399
0.420725	0.38520899
0.427428	0.38484939
0.437832	0.38442840
0.453394	0.38399106
0.486091	0.38355384
0.510875	0.38313533
0.520590	0.38266153
0.540367	0.38223299
0.548130	0.38183895
0.565829	0.38151774
0.577995	0.38126777
0.599007	0.38107899
0.608083	0.38089212
0.617518	0.38075311
0.631172	0.38061684
0.641370	0.38053966
0.668767	0.38049042
0.685896	0.38037379
0.692103	0.38023871
0.706906	0.38015149
0.736671	0.38015255
0.759410	0.38026165
0.775766	0.38043030
0.784870	0.38069781
0.792489	0.38113571
0.819089	0.38157415
0.837450	0.38197177
0.851639	0.38233769
0.857075	0.38265727
0.876116	0.38287778
0.912393	0.38293220
0.921129	0.38277429
1.005238	0.38249347
1.023996	0.38215035
1.038320	0.38165457
1.054533	0.38111012
1.069347	0.38058436
1.081798	0.38011752
1.111329	0.37964147
1.127362	0.37912514
1.143507	0.37867271
1.161213	0.37839611
1.168465	0.37822390
1.175331	0.37815338
1.191180	0.37817926
1.216560	0.37838025
1.222730	0.37875551
1.233779	0.37914201
1.254035	0.37944512
1.270244	0.37958033
1.289255	0.37959218
1.302488	0.37952382
1.329018	0.37940637
1.351365	0.37931349
1.359104	0.37923945
1.368398	0.37917788
1.375311	0.37911783
1.401951	0.37904404
1.418173	0.37894353
1.431856	0.37879542
1.439034	0.37861511
1.447223	0.37859613
1.466075	0.37895261
1.478233	0.37963254
1.508544	0.38041134
1.518374	0.38125404
1.536111	0.38235968
1.543381	0.38365004
1.564351	0.38478537
1.594366	0.38539349
1.628237	0.38555657
1.636242	0.38551569
1.688320	0.38589668
1.696101	0.38632562
1.700927	0.38655902
1.720862	0.38678431
1.722937	0.38712998
1.741326	0.38749752
1.751025	0.38794778
1.755671	0.38801306
1.778938	0.38786282
1.804496	0.38766802
1.806647	0.38734706
1.831708	0.38696288
1.838252	0.38664804
1.846309	0.38635237
1.865596	0.38600028
1.894355	0.38556831
1.906081	0.38508708
1.916924	0.38463534
1.934286	0.38413464
1.992018	0.38356084
2.001277	0.38288311
2.017916	0.38206701
2.023765	0.38119141
2.038649	0.38033879
2.045906	0.37949036
2.083794	0.37873611
2.107019	0.37814566
2.122765	0.37774235
2.132665	0.37745505
2.149006	0.37722847
2.167933	0.37710313
2.173447	0.37701089
2.186793	0.37690107
2.232869	0.37663795
2.261152	0.37623296
2.292630	0.37578633
2.301458	0.37521136
2.317770	0.37458694
2.330897	0.37399589
2.343343	0.37349260
2.351344	0.37328358
2.363333	0.37321656
2.376006	0.37327470
2.384118	0.37350964
2.395875	0.37381905
2.436965	0.37417761
2.460753	0.37451990
2.499247	0.37466954
2.516477	0.37475572
2.532243	0.37475332
2.542859	0.37467408
2.551991	0.37464103
2.564659	0.37472700
2.581594	0.37504464
2.600467	0.37555584
2.617016	0.37619412
2.624573	0.37685695
2.635087	0.37755882
2.653913	0.37821003
2.659646	0.37880731
2.684648	0.37926906
2.689801	0.37964982
2.715073	0.37994938
2.729260	0.38025193
2.751793	0.38062692
2.767179	0.38107570
2.784166	0.38158295
2.789703	0.38215598
2.800158	0.38271019
2.812828	0.38331354
2.820966	0.38398564
2.837500	0.38466955
2.857330	0.38525915
2.881606	0.38571829
2.906622	0.38597038
2.915580	0.38614655
2.932438	0.38624042
2.942874	0.38622518
2.972673	0.38612271
2.985443	0.38610591
3.001827	0.38609496
3.016729	0.38612496
3.032846	0.38614130
3.043479	0.38608406
3.052637	0.38601153
3.098972	0.38595056
3.107840	0.38583408
3.131272	0.38571111
3.149756	0.38560975
3.165285	0.38552733
3.174314	0.38548448
3.184318	0.38545039
3.200891	0.38541963
3.211546	0.38537906
3.232991	0.38529769
3.240099	0.38517434
3.256409	0.38497143
3.270669	0.38479805
3.273870	0.38477825
3.300484	0.38487831
3.309652	0.38508910
3.349130	0.38547248
3.365019	0.38597936
3.390049	0.38660913
3.430613	0.38712237
3.447146	0.38743697
3.462179	0.38761642
3.478896	0.38765776
3.493556	0.38757201
3.509446	0.38740169
3.520025	0.38724828
3.531547	0.38734482
3.547391	0.38762037
3.564326	0.38799950
3.573967	0.38843149
3.583989	0.38882524
3.630334	0.38923662
3.647653	0.38955101
3.664782	0.38968291
3.681207	0.38963007
3.697951	0.38946953
3.708176	0.38923363
3.718803	0.38899403
3.733282	0.38871177
3.742330	0.38849773
3.768616	0.38839148
3.774807	0.38842400
3.783684	0.38851725
3.797060	0.38865029
3.805449	0.38880589
3.821419	0.38899306
3.844581	0.38913353
3.854344	0.38918348
3.877579	0.38917924
3.913920	0.38916706
3.933019	0.38916660
3.938538	0.38919031
3.963331	0.38924805
3.972642	0.38933373
3.980448	0.38944565
3.999820	0.38959338
4.022124	0.38988047
4.047964	0.39041715
4.064111	0.39114729
4.080521	0.39195876
4.090241	0.39279061
4.103292	0.39354697
4.120369	0.39415938
4.134826	0.39452521
4.142579	0.39452769
4.159893	0.39419018
4.168832	0.39360672
4.242046	0.39287942
4.266348	0.39218255
4.274724	0.39160246
4.299732	0.39118743
4.316937	0.39097213
4.332303	0.39097971
4.348556	0.39116154
4.357168	0.39156714
4.367424	0.39211586
4.381538	0.39266681
4.390517	0.39309741
4.398635	0.39340313
4.418025	0.39359412
4.456709	0.39384051
4.488214	0.39404215
4.504301	0.39408913
4.532102	0.39410330
4.547712	0.39418319
4.562021	0.39424935
4.572512	0.39441293
4.580856	0.39445359
4.597778	0.39438799
4.613611	0.39440818
4.622067	0.39452659
4.631798	0.39475092
4.664045	0.39522490
4.679147	0.39587880
4.697113	0.39663357
4.714708	0.39746321
4.723734	0.39817330
4.733122	0.39862481
4.740010	0.39868249
4.747636	0.39836089
4.765604	0.39754331
4.774817	0.39642245
4.808275	0.39527665
4.824279	0.39430265
4.864669	0.39351750
4.882008	0.39320675
4.900793	0.39304435
4.918494	0.39301908
4.926166	0.39316611
4.948231	0.39309811
4.965439	0.39292626
4.971268	0.39264579
4.998107	0.39213232
5.014953	0.39152270
5.023062	0.39093395
5.033369	0.39046321
5.065411	0.39013789
5.077296	0.38993564
5.088627	0.38990499
5.110015	0.38994884
5.120492	0.39030653
5.142272	0.39090257
5.149886	0.39137471
